
CASCADE Topology V3, (c) Open Cascade
Locations 0
Curve2ds 130
1 0.77500000000000036 0.80000000000000249 -1 0 
1 -0.77499999999999947 0.80000000000000249 0 -1 
1 -0.77499999999999947 -0.79999999999999716 1 0 
1 0.59999999999999964 0.049999500000000197 -1 0 
1 0.57500000000000018 -0.79999999999999716 -1 0 
1 0.77500000000000036 -0.79999999999999716 0 1 
1 -0.60000000000000053 0.049999500000000197 0 -1 
1 -0.60000000000000053 -0.049999500000000197 1 0 
1 -2.4999999999999991 1.2000005000000016 1 0 
1 0.59999999999999964 -0.049999500000000197 0 1 
1 4.2000000000000011 1.2000005000000016 -1 0 
1 -0.59999999999999964 0.20000000000000107 0 -1 
1 -0.39999999999999858 1.5999995000000027 0 -1 
1 -0.59999999999999964 -0.19999999999999929 1 0 
1 -0.39999999999999858 1.1999995000000023 1 0 
1 0.59999999999999964 -0.19999999999999929 0 1 
1 0.80000000000000071 1.1999995000000023 0 1 
1 -0.60000050000000194 0.075000000000001066 0 -1 
1 2.7999990000000015 1.3499995000000027 0 -1 
1 -0.60000050000000194 -0.074999999999999289 1 0 
1 2.7999990000000015 1.1999995000000023 1 0 
1 0.60000049999999838 -0.074999999999999289 0 1 
1 4.0000000000000018 1.1999995000000023 0 1 
1 4.2000000000000011 -1.200000499999998 0 1 
1 -0.075000000000002842 0.75 0 -1 
1 4.2000000000000011 0.74999950000000126 0 -1 
1 -4.1999999999999993 -1.200000499999998 1 0 
1 -4.1999999999999993 1.2000005000000016 0 -1 
1 0.074999999999999289 -0.60000000000000142 0 1 
1 -4.1999999999999993 -0.60000049999999838 0 1 
1 -0.70000000000000018 -2.9249994999999984 1 0 
1 -4.1999999999999993 1.2000005000000016 1 0 
1 4 -0.19999900000000004 -1 0 
1 0.80000049999999767 -0.074999000000000038 -1 0 
1 -0.075000000000002842 -0.75 1 0 
1 0.074999999999997513 -0.75 0 1 
1 -1.9750000000000014 0.44999999999999929 0 1 
1 0.074999999999997513 0.75 -1 0 
1 -0.075000000000000178 -0.60000000000000142 1 0 
1 0.074999999999999289 0.59999999999999964 -1 0 
1 -0.075000000000000178 0.59999999999999964 0 -1 
1 1.9499999999999997 -2.3250000000000011 0 -1 
1 0.70000000000000018 2.924999500000002 -1 0 
1 -0.70000000000000018 2.924999500000002 0 -1 
1 0.70000000000000018 -2.9249994999999984 0 1 
1 -0.075000000000001066 0.59999999999999964 0 -1 
1 0.70000000000000018 0.57500050000000158 0 -1 
1 0.59999999999999964 0.20000000000000107 -1 0 
1 0.60000049999999838 0.075000000000001066 -1 0 
1 1.1999999999999993 -0.82499999999999929 -1 0 
1 1.9749999999999996 8.25 -1 0 
1 -1.9750000000000014 8.25 0 -1 
1 -1.9750000000000014 -8.25 1 0 
1 1.9749999999999996 -8.25 0 1 
1 -7.5 -0.92499999999999993 0 1 
1 -7.4999999999999964 6.3499999999999996 0 -1 
1 1.9749999999999996 6.4000000000000004 0 -1 
1 -7.4999999999999964 -15.625 0 1 
1 1.9499999999999997 4.1249999999999982 -1 0 
1 -1.9500000000000004 4.1249999999999982 0 -1 
1 -1.9500000000000004 -4.1250000000000018 1 0 
1 0.59999999999999964 0.074999999999999289 -1 0 
1 1.7999999999999994 -4.1250000000000018 -1 0 
1 1.9499999999999997 -4.1250000000000018 0 1 
1 -0.075000000000001066 -0.59999999999999964 1 0 
1 0.074999999999999289 -0.59999999999999964 0 1 
1 -1.9749999999999996 -1.5749989999999983 0 1 
1 0.074999999999999289 0.59999999999999964 -1 0 
1 1.2999999999999989 0.82499999999999929 -1 0 
1 -1.3000000000000007 0.82499999999999929 0 -1 
1 -1.3000000000000007 -0.82499999999999929 1 0 
1 1.2999999999999989 -0.82499999999999929 0 1 
1 -7.5 -0.92499999999999993 1 0 
1 7.5 -0.92499999999999993 0 1 
1 -0.94999999999999574 -8.25 0 1 
1 7.5 0.92500000000000016 -1 0 
1 7.5000000000000036 6.3499999999999996 -1 0 
1 -7.4999999999999964 -6.3500000000000005 1 0 
1 7.5000000000000036 -6.3500000000000005 0 1 
1 -0.94999999999999574 -6.2999999999999998 0 1 
1 -7.4999999999999964 -0.875 1 0 
1 7.5000000000000036 -0.875 0 1 
1 -0.94999999999999574 6.5 0 1 
1 7.5000000000000036 0.875 -1 0 
1 -0.60000000000000009 0.074999999999999289 0 -1 
1 -0.60000000000000009 -0.075000000000001066 1 0 
1 -3.6500000000000008 1.9499999999999993 1 0 
1 0.59999999999999964 -0.075000000000001066 0 1 
1 1.9749999999999996 1.9750000000000014 -1 0 
1 -1.9749999999999996 1.9750000000000014 0 -1 
1 -1.9749999999999996 -1.9749999999999979 1 0 
1 1.9749999999999996 -1.9749999999999979 0 1 
1 -0.94999999999999574 -8.25 1 0 
1 0.95000000000000284 -8.25 0 1 
1 -0.075001000000000317 1 0 -1 
1 0.95000000000000284 -2.2000010000000003 0 -1 
1 -0.075001000000000317 0.5 0 -1 
1 0.95000000000000284 3.2000010000000003 0 -1 
1 -0.075001000000000317 0.5 0 -1 
1 0.95000000000000284 6.2000010000000003 0 -1 
1 0.95000000000000284 8.25 -1 0 
1 -0.94999999999999574 8.25 0 -1 
1 6.2499999999999991 1.9499999999999993 -1 0 
1 -6.2500000000000009 1.9499999999999993 0 -1 
1 -6.2500000000000009 -1.9500000000000002 1 0 
1 6.2499999999999991 -1.9500000000000002 0 1 
1 -0.075001000000000317 -1 1 0 
1 0.075001000000000317 -1 0 1 
1 -1.9499985000000066 -0.025000000000000355 0 1 
1 0.075001000000000317 1 -1 0 
1 -0.075001000000000317 -0.5 1 0 
1 0.075001000000000317 -0.5 0 1 
1 -1.9499985000000066 0.10000100000000067 0 1 
1 0.075001000000000317 0.5 -1 0 
1 -0.075001000000000317 -0.5 1 0 
1 0.075001000000000317 -0.5 0 1 
1 -1.9499984999999995 -1.074999 0 1 
1 0.075001000000000317 0.5 -1 0 
1 1.9499984999999924 4.074999 -1 0 
1 -1.9499985000000066 4.074999 0 -1 
1 -1.9499985000000066 -4.074999 1 0 
1 1.9499984999999924 -4.074999 0 1 
1 1.9499984999999924 2 -1 0 
1 -1.9499985000000066 2 0 -1 
1 -1.9499985000000066 -2 1 0 
1 1.9499984999999924 -2 0 1 
1 1.9499984999999995 1.9749999999999996 -1 0 
1 -1.9499984999999995 1.9749999999999996 0 -1 
1 -1.9499984999999995 -1.9749999999999996 1 0 
1 1.9499984999999995 -1.9749999999999996 0 1 
Curves 98
1 7.2000000000000002 12.35 0 -1 0 0 
1 5.6500000000000004 12.35 0 0 -1 0 
1 5.6500000000000004 10.75 0 1 0 0 
1 7 10.75 0 -1 0 0 
1 7.2000000000000002 10.75 0 0 1 0 
1 5.7999999999999998 10.75 0 0 -1 0 
1 5.7999999999999998 10.650001 0 1 0 0 
1 7 10.650001 0 0 1 0 
1 12.5 10.650001 0 -1 0 0 
1 7.9000000000000004 11.050000000000001 0 0 -1 0 
1 7.9000000000000004 10.65 0 1 0 0 
1 9.0999999999999996 10.65 0 0 1 0 
1 11.099999 10.800000000000001 0 0 -1 0 
1 11.099999 10.65 0 1 0 0 
1 12.300000000000001 10.65 0 0 1 0 
1 12.5 8.25 0 0 1 0 
1 12.5 10.199999999999999 0 0 -1 0 
1 4.0999999999999996 8.25 0 1 0 0 
1 4.0999999999999996 10.650001 0 0 -1 0 
1 4.0999999999999996 8.8499999999999996 0 0 1 0 
1 4.0999999999999996 10.650001 0 1 0 0 
1 12.5 8.6999999999999993 0 1 0 0 
1 12.65 8.6999999999999993 0 0 1 0 
1 12.65 10.199999999999999 0 -1 0 0 
1 3.9500000000000002 8.8499999999999996 0 1 0 0 
1 4.0999999999999996 10.050000000000001 0 -1 0 0 
1 3.9500000000000002 10.050000000000001 0 0 -1 0 
1 5.5 16.5 0 -1 0 0 
1 4.0999999999999996 16.5 0 0 -1 0 
1 5.5 10.650001 0 0 1 0 
1 5.5 14.150001 0 0 -1 0 
1 9.0999999999999996 11.050000000000001 0 -1 0 0 
1 12.300000000000001 10.800000000000001 0 -1 0 0 
1 16.600000000000001 16.5 0 -1 0 0 
1 12.65 16.5 0 0 -1 0 
1 12.65 -0 0 1 0 0 
1 16.600000000000001 -0 0 0 1 0 
1 16.600000000000001 14.65 0 0 -1 0 
1 3.9500000000000002 16.5 0 -1 0 0 
1 0.050000000000000003 16.5 0 0 -1 0 
1 0.050000000000000003 8.25 0 1 0 0 
1 3.7999999999999998 8.25 0 -1 0 0 
1 3.9500000000000002 8.25 0 0 1 0 
1 5.5 12.950001 0 1 0 0 
1 5.6500000000000004 12.950001 0 0 1 0 
1 5.6500000000000004 14.150001 0 -1 0 0 
1 12.4 12.449999999999999 0 -1 0 0 
1 9.8000000000000007 12.449999999999999 0 0 -1 0 
1 9.8000000000000007 10.800000000000001 0 1 0 0 
1 12.4 10.800000000000001 0 0 1 0 
1 16.600000000000001 -0 0 1 0 0 
1 31.600000000000001 -0 0 0 1 0 
1 31.600000000000001 1.8500000000000001 0 -1 0 0 
1 31.600000000000001 14.65 0 -1 0 0 
1 16.600000000000001 1.95 0 1 0 0 
1 31.600000000000001 1.95 0 0 1 0 
1 16.600000000000001 14.75 0 1 0 0 
1 31.600000000000001 14.75 0 0 1 0 
1 31.600000000000001 16.5 0 -1 0 0 
1 2.6000000000000001 8.25 0 0 -1 0 
1 2.6000000000000001 8.0999999999999996 0 1 0 0 
1 3.7999999999999998 8.0999999999999996 0 0 1 0 
1 9.5999999999999996 16.5 0 -1 0 0 
1 5.6500000000000004 16.5 0 0 -1 0 
1 5.6500000000000004 12.550000000000001 0 1 0 0 
1 9.5999999999999996 12.550000000000001 0 0 1 0 
1 31.600000000000001 -0 0 1 0 0 
1 33.5 -0 0 0 1 0 
1 33.5 6.0499989999999997 0 0 -1 0 
1 33.5 11.450001 0 0 -1 0 
1 33.5 14.450001 0 0 -1 0 
1 33.5 16.5 0 -1 0 0 
1 31.600000000000001 16.5 0 0 -1 0 
1 12.5 8.0999999999999996 0 -1 0 0 
1 0 8.0999999999999996 0 0 -1 0 
1 0 4.2000000000000002 0 1 0 0 
1 12.5 4.2000000000000002 0 0 1 0 
1 33.5 4.0499989999999997 0 1 0 0 
1 33.650002000000001 4.0499989999999997 0 0 1 0 
1 33.650002000000001 6.0499989999999997 0 -1 0 0 
1 33.5 10.450001 0 1 0 0 
1 33.650002000000001 10.450001 0 0 1 0 
1 33.650002000000001 11.450001 0 -1 0 0 
1 33.5 13.450001 0 1 0 0 
1 33.650002000000001 13.450001 0 0 1 0 
1 33.650002000000001 14.450001 0 -1 0 0 
1 37.549999 8.1499980000000001 0 -1 0 0 
1 33.650002000000001 8.1499980000000001 0 0 -1 0 
1 33.650002000000001 -0 0 1 0 0 
1 37.549999 -0 0 0 1 0 
1 37.549999 12.35 0 -1 0 0 
1 33.650002000000001 12.35 0 0 -1 0 
1 33.650002000000001 8.3499999999999996 0 1 0 0 
1 37.549999 8.3499999999999996 0 0 1 0 
1 37.549999 16.5 0 -1 0 0 
1 33.650002000000001 16.5 0 0 -1 0 
1 33.650002000000001 12.550000000000001 0 1 0 0 
1 37.549999 12.550000000000001 0 0 1 0 
Polygon3D 0
PolygonOnTriangulations 0
Surfaces 25
1 6.4249999999999998 11.549999999999997 0 0 0 1 1 0 -0 -0 1 0 
1 6.4000000000000004 10.7000005 0 0 0 1 1 0 -0 -0 1 0 
1 8.2999999999999989 9.450000499999998 0 0 0 1 1 0 -0 -0 1 0 
1 8.5 10.85 0 0 0 1 1 0 -0 -0 1 0 
1 11.699999500000002 10.725 0 0 0 1 1 0 -0 -0 1 0 
1 12.575000000000003 9.4499999999999993 0 0 0 1 1 0 -0 -0 1 0 
1 4.0250000000000004 9.4500000000000011 0 0 0 1 1 0 -0 -0 1 0 
1 4.7999999999999998 13.575000499999998 0 0 0 1 1 0 -0 -0 1 0 
1 14.625000000000002 8.25 0 0 0 1 1 0 -0 -0 1 0 
1 2.0000000000000004 12.375000000000002 0 0 0 1 1 0 -0 -0 1 0 
1 5.5750000000000011 13.550001 0 0 0 1 1 0 -0 -0 1 0 
1 11.100000000000001 11.625 0 0 0 1 1 0 -0 -0 1 0 
1 24.100000000000001 0.92499999999999993 0 0 0 1 1 0 -0 -0 1 0 
1 24.099999999999998 8.3000000000000007 0 0 0 1 1 0 -0 -0 1 0 
1 24.099999999999998 15.625 0 0 0 1 1 0 -0 -0 1 0 
1 3.2000000000000002 8.1750000000000007 0 0 0 1 1 0 -0 -0 1 0 
1 7.625 14.524999999999999 0 0 0 1 1 0 -0 -0 1 0 
1 32.549999999999997 8.25 0 0 0 1 1 0 -0 -0 1 0 
1 6.2500000000000009 6.1500000000000004 0 0 0 1 1 0 -0 -0 1 0 
1 33.575001 5.0499989999999997 0 0 0 1 1 0 -0 -0 1 0 
1 33.575001 10.950001 0 0 0 1 1 0 -0 -0 1 0 
1 33.575001 13.950001 0 0 0 1 1 0 -0 -0 1 0 
1 35.600000500000007 4.074999 0 0 0 1 1 0 -0 -0 1 0 
1 35.600000500000007 10.35 0 0 0 1 1 0 -0 -0 1 0 
1 35.6000005 14.525 0 0 0 1 1 0 -0 -0 1 0 
Triangulations 0

TShapes 281
Ve
1e-07
7.2 12.35 0
0 0

0101101
*
Ve
1e-07
5.65 12.35 0
0 0

0101101
*
Ed
 1e-07 1 1 0
1  1 0 0 1.55
2  1 1 0 0 1.55
0

0101000
+281 0 -280 0 *
Ve
1e-07
5.65 10.75 0
0 0

0101101
*
Ed
 1e-07 1 1 0
1  2 0 0 1.6
2  2 1 0 0 1.6
0

0101000
+280 0 -278 0 *
Ve
1e-07
5.8 10.75 0
0 0

0101101
*
Ed
 1e-07 1 1 0
1  3 0 0 0.149999999999999
2  3 1 0 0 0.149999999999999
0

0101000
+278 0 -276 0 *
Ve
1e-07
7 10.75 0
0 0

0101101
*
Ed
 1e-07 1 1 0
1  4 0 0 1.2
2  4 2 0 0 1.2
2  5 1 0 0 1.2
0

0101000
+274 0 -276 0 *
Ve
1e-07
7.2 10.75 0
0 0

0101101
*
Ed
 1e-07 1 1 0
1  3 0 1.35 1.55
2  3 1 0 1.35 1.55
0

0101000
+274 0 -272 0 *
Ed
 1e-07 1 1 0
1  5 0 0 1.6
2  6 1 0 0 1.6
0

0101000
+272 0 -281 0 *
Wi

0101100
+279 0 +277 0 +275 0 -273 0 +271 0 +270 0 *
Fa
0  1e-07 1 0

0101000
+269 0 *
Ve
1e-07
5.8 10.650001 0
0 0

0101101
*
Ed
 1e-07 1 1 0
1  6 0 0 0.0999990000000004
2  7 2 0 0 0.0999990000000004
0

0101000
+276 0 -267 0 *
Ve
1e-07
7 10.650001 0
0 0

0101101
*
Ed
 1e-07 1 1 0
1  7 0 0 1.2
2  8 2 0 0 1.2
2  9 3 0 0 1.2
0

0101000
+267 0 -265 0 *
Ed
 1e-07 1 1 0
1  8 0 0 0.0999990000000004
2  10 2 0 0 0.0999990000000004
0

0101000
+265 0 -274 0 *
Wi

0101100
+266 0 +264 0 +263 0 +273 0 *
Fa
0  1e-07 2 0

0101000
+262 0 *
Ve
1e-07
7.9 10.650001 0
0 0

0101101
*
Ed
 1e-07 1 1 0
1  9 0 4.6 5.5
2  11 3 0 4.6 5.5
0

0101000
+260 0 -265 0 *
Ve
1e-07
7.9 10.65 0
0 0

0101101
*
Ed
 1e-07 1 1 0
1  10 0 0.399999000000001 0.4
2  12 4 0 0.399999000000001 0.4
2  13 3 0 0.399999000000001 0.4
0

0101000
+260 0 -258 0 *
Ve
1e-07
9.1 10.65 0
0 0

0101101
*
Ed
 1e-07 1 1 0
1  11 0 0 1.2
2  14 4 0 0 1.2
2  15 3 0 0 1.2
0

0101000
+258 0 -256 0 *
Ve
1e-07
9.1 10.650001 0
0 0

0101101
*
Ed
 1e-07 1 1 0
1  12 0 0 9.999999992516e-07
2  16 4 0 0 9.999999992516e-07
2  17 3 0 0 9.999999992516e-07
0

0101000
+256 0 -254 0 *
Ve
1e-07
11.099999 10.650001 0
0 0

0101101
*
Ed
 1e-07 1 1 0
1  9 0 1.400001 3.4
2  11 3 0 1.400001 3.4
0

0101000
+252 0 -254 0 *
Ve
1e-07
11.099999 10.65 0
0 0

0101101
*
Ed
 1e-07 1 1 0
1  13 0 0.149999000000001 0.15
2  18 5 0 0.149999000000001 0.15
2  19 3 0 0.149999000000001 0.15
0

0101000
+252 0 -250 0 *
Ve
1e-07
12.3 10.65 0
0 0

0101101
*
Ed
 1e-07 1 1 0
1  14 0 0 1.200001
2  20 5 0 0 1.200001
2  21 3 0 0 1.200001
0

0101000
+250 0 -248 0 *
Ve
1e-07
12.3 10.650001 0
0 0

0101101
*
Ed
 1e-07 1 1 0
1  15 0 0 9.999999992516e-07
2  22 5 0 0 9.999999992516e-07
2  23 3 0 0 9.999999992516e-07
0

0101000
+248 0 -246 0 *
Ve
1e-07
12.5 10.650001 0
0 0

0101101
*
Ed
 1e-07 1 1 0
1  9 0 0 0.199999999999999
2  11 3 0 0 0.199999999999999
0

0101000
+244 0 -246 0 *
Ve
1e-07
12.5 10.2 0
0 0

0101101
*
Ed
 1e-07 1 1 0
1  16 0 1.95 2.400001
2  24 3 0 1.95 2.400001
0

0101000
+242 0 -244 0 *
Ve
1e-07
12.5 8.7 0
0 0

0101101
*
Ed
 1e-07 1 1 0
1  17 0 0 1.5
2  25 6 0 0 1.5
2  26 3 0 0 1.5
0

0101000
+242 0 -240 0 *
Ve
1e-07
12.5 8.25 0
0 0

0101101
*
Ed
 1e-07 1 1 0
1  16 0 0 0.449999999999999
2  24 3 0 0 0.449999999999999
0

0101000
+238 0 -240 0 *
Ve
1e-07
4.1 8.25 0
0 0

0101101
*
Ed
 1e-07 1 1 0
1  18 0 0 8.4
2  27 3 0 0 8.4
0

0101000
+236 0 -238 0 *
Ve
1e-07
4.1 8.85 0
0 0

0101101
*
Ed
 1e-07 1 1 0
1  19 0 1.800001 2.400001
2  28 3 0 1.800001 2.400001
0

0101000
+234 0 -236 0 *
Ve
1e-07
4.1 10.05 0
0 0

0101101
*
Ed
 1e-07 1 1 0
1  20 0 0 1.2
2  29 7 0 0 1.2
2  30 3 0 0 1.2
0

0101000
+234 0 -232 0 *
Ve
1.00000000888178e-07
4.1 10.650001 0
0 0

0101101
*
Ed
 1e-07 1 1 0
1  19 0 0 0.600000999999999
2  28 3 0 0 0.600000999999999
0

0101000
+230 0 -232 0 *
Ve
1.00000000888178e-07
5.5 10.650001 0
0 0

0101101
*
Ed
 1.00000000888178e-07 1 1 0
1  21 0 0 1.4
2  31 8 0 0 1.4
2  32 3 0 0 1.4
0

0101000
+230 0 -228 0 *
Ed
 1e-07 1 1 0
1  9 0 6.7 7
2  11 3 0 6.7 7
0

0101000
+267 0 -228 0 *
Wi

0101100
-264 0 +259 0 -257 0 -255 0 -253 0 +251 0 -249 0 -247 0 -245 0 +243 0 
+241 0 -239 0 +237 0 +235 0 +233 0 -231 0 +229 0 -227 0 +226 0 *
Fa
0  1e-07 3 0

0101000
+225 0 *
Ed
 1e-07 1 1 0
1  9 0 3.4 4.6
2  11 3 0 3.4 4.6
2  33 4 0 3.4 4.6
0

0101000
+254 0 -260 0 *
Wi

0101100
+253 0 +255 0 +257 0 +223 0 *
Fa
0  1e-07 4 0

0101000
+222 0 *
Ed
 1e-07 1 1 0
1  9 0 0.199999999999999 1.400001
2  11 3 0 0.199999999999999 1.400001
2  34 5 0 0.199999999999999 1.400001
0

0101000
+246 0 -252 0 *
Wi

0101100
+220 0 +245 0 +247 0 +249 0 *
Fa
0  1e-07 5 0

0101000
+219 0 *
Ve
1e-07
12.65 8.7 0
0 0

0101101
*
Ed
 1e-07 1 1 0
1  22 0 0 0.15
2  35 6 0 0 0.15
0

0101000
+240 0 -217 0 *
Ve
1e-07
12.65 10.2 0
0 0

0101101
*
Ed
 1e-07 1 1 0
1  23 0 0 1.5
2  36 6 0 0 1.5
2  37 9 0 0 1.5
0

0101000
+217 0 -215 0 *
Ed
 1e-07 1 1 0
1  24 0 0 0.15
2  38 6 0 0 0.15
0

0101000
+215 0 -242 0 *
Wi

0101100
+216 0 +214 0 +213 0 +239 0 *
Fa
0  1e-07 6 0

0101000
+212 0 *
Ve
1e-07
3.95 8.85 0
0 0

0101101
*
Ed
 1e-07 1 1 0
1  25 0 0 0.149999999999999
2  39 7 0 0 0.149999999999999
0

0101000
+210 0 -234 0 *
Ve
1e-07
3.95 10.05 0
0 0

0101101
*
Ed
 1e-07 1 1 0
1  26 0 0 0.149999999999999
2  40 7 0 0 0.149999999999999
0

0101000
+232 0 -208 0 *
Ed
 1e-07 1 1 0
1  27 0 0 1.2
2  41 7 0 0 1.2
2  42 10 0 0 1.2
0

0101000
+208 0 -210 0 *
Wi

0101100
+209 0 +231 0 +207 0 +206 0 *
Fa
0  1e-07 7 0

0101000
+205 0 *
Ve
1e-07
5.5 16.5 0
0 0

0101101
*
Ve
1e-07
4.1 16.5 0
0 0

0101101
*
Ed
 1e-07 1 1 0
1  28 0 0 1.4
2  43 8 0 0 1.4
0

0101000
+203 0 -202 0 *
Ed
 1e-07 1 1 0
1  29 0 0 5.849999
2  44 8 0 0 5.849999
0

0101000
+202 0 -230 0 *
Ve
1e-07
5.5 12.950001 0
0 0

0101101
*
Ed
 1e-07 1 1 0
1  30 0 0 2.3
2  45 8 0 0 2.3
0

0101000
+228 0 -199 0 *
Ve
1e-07
5.5 14.150001 0
0 0

0101101
*
Ed
 1e-07 1 1 0
1  31 0 0 1.2
2  46 11 0 0 1.2
2  47 8 0 0 1.2
0

0101000
+197 0 -199 0 *
Ed
 1e-07 1 1 0
1  30 0 3.5 5.849999
2  45 8 0 3.5 5.849999
0

0101000
+197 0 -203 0 *
Wi

0101100
+201 0 +200 0 +227 0 +198 0 -196 0 +195 0 *
Fa
0  1e-07 8 0

0101000
+194 0 *
Ve
1e-07
9.1 11.05 0
0 0

0101101
*
Ed
 1e-07 1 1 0
1  12 0 9.999999992516e-07 0.4
2  16 4 0 9.999999992516e-07 0.4
0

0101000
+254 0 -192 0 *
Ve
1e-07
7.9 11.05 0
0 0

0101101
*
Ed
 1e-07 1 1 0
1  10 0 0 0.399999000000001
2  12 4 0 0 0.399999000000001
0

0101000
+190 0 -260 0 *
Ed
 1e-07 1 1 0
1  32 0 0 1.2
2  48 4 0 0 1.2
0

0101000
+192 0 -190 0 *
Wi

0101100
+191 0 -223 0 +189 0 +188 0 *
Fa
0  1e-07 4 0

0101000
+187 0 *
Ve
1e-07
12.3 10.8 0
0 0

0101101
*
Ve
1e-07
11.099999 10.8 0
0 0

0101101
*
Ed
 1e-07 1 1 0
1  33 0 0 1.200001
2  49 5 0 0 1.200001
2  50 12 0 0 1.200001
0

0101000
+185 0 -184 0 *
Ed
 1e-07 1 1 0
1  15 0 9.999999992516e-07 0.15
2  22 5 0 9.999999992516e-07 0.15
0

0101000
+246 0 -185 0 *
Ed
 1e-07 1 1 0
1  13 0 0 0.149999000000001
2  18 5 0 0 0.149999000000001
0

0101000
+184 0 -252 0 *
Wi

0101100
+183 0 +182 0 -220 0 +181 0 *
Fa
0  1e-07 5 0

0101000
+180 0 *
Ve
1e-07
16.6 16.5 0
0 0

0101101
*
Ve
1e-07
12.65 16.5 0
0 0

0101101
*
Ed
 1e-07 1 1 0
1  34 0 0 3.95
2  51 9 0 0 3.95
0

0101000
+178 0 -177 0 *
Ed
 1e-07 1 1 0
1  35 0 0 6.3
2  52 9 0 0 6.3
0

0101000
+177 0 -215 0 *
Ve
1e-07
12.65 -0 0
0 0

0101101
*
Ed
 1e-07 1 1 0
1  35 0 7.8 16.5
2  52 9 0 7.8 16.5
0

0101000
+217 0 -174 0 *
Ve
1.00000000111022e-07
16.6 0 0
0 0

0101101
*
Ed
 1e-07 1 1 0
1  36 0 0 3.95
2  53 9 0 0 3.95
0

0101000
+174 0 -172 0 *
Ve
1.00000000111022e-07
16.6 1.85 0
0 0

0101101
*
Ed
 1.00000000111022e-07 1 1 0
1  37 0 0 1.85
2  54 9 0 0 1.85
2  55 13 0 0 1.85
0

0101000
+172 0 -170 0 *
Ve
1.00000000444089e-07
16.6 1.95 0
0 0

0101101
*
Ed
 1e-07 1 1 0
1  37 0 1.85 1.95
2  54 9 0 1.85 1.95
0

0101000
+170 0 -168 0 *
Ve
1.00000000444089e-07
16.6 14.65 0
0 0

0101101
*
Ed
 1e-07 1 1 0
1  38 0 0 12.7
2  56 14 0 0 12.7
2  57 9 0 0 12.7
0

0101000
+166 0 -168 0 *
Ve
1e-07
16.6 14.75 0
0 0

0101101
*
Ed
 1e-07 1 1 0
1  37 0 14.65 14.75
2  54 9 0 14.65 14.75
0

0101000
+166 0 -164 0 *
Ed
 1e-07 1 1 0
1  37 0 14.75 16.5
2  54 9 0 14.75 16.5
2  58 15 0 14.75 16.5
0

0101000
+164 0 -178 0 *
Wi

0101100
+176 0 +175 0 -214 0 +173 0 +171 0 +169 0 +167 0 -165 0 +163 0 +162 0 
*
Fa
0  1e-07 9 0

0101000
+161 0 *
Ve
1e-07
3.95 16.5 0
0 0

0101101
*
Ve
1e-07
0.05 16.5 0
0 0

0101101
*
Ed
 1e-07 1 1 0
1  39 0 0 3.9
2  59 10 0 0 3.9
0

0101000
+159 0 -158 0 *
Ve
1e-07
0.05 8.25 0
0 0

0101101
*
Ed
 1e-07 1 1 0
1  40 0 0 8.25
2  60 10 0 0 8.25
0

0101000
+158 0 -156 0 *
Ve
1e-07
2.6 8.25 0
0 0

0101101
*
Ed
 1e-07 1 1 0
1  41 0 0 2.55
2  61 10 0 0 2.55
0

0101000
+156 0 -154 0 *
Ve
1e-07
3.8 8.25 0
0 0

0101101
*
Ed
 1e-07 1 1 0
1  42 0 0 1.2
2  62 16 0 0 1.2
2  63 10 0 0 1.2
0

0101000
+152 0 -154 0 *
Ve
1e-07
3.95 8.25 0
0 0

0101101
*
Ed
 1e-07 1 1 0
1  41 0 3.75 3.9
2  61 10 0 3.75 3.9
0

0101000
+152 0 -150 0 *
Ed
 1e-07 1 1 0
1  43 0 0 0.6
2  64 10 0 0 0.6
0

0101000
+150 0 -210 0 *
Ed
 1e-07 1 1 0
1  43 0 1.8 8.25
2  64 10 0 1.8 8.25
0

0101000
+208 0 -159 0 *
Wi

0101100
+157 0 +155 0 +153 0 -151 0 +149 0 +148 0 -206 0 +147 0 *
Fa
0  1e-07 10 0

0101000
+146 0 *
Ve
1e-07
5.65 12.950001 0
0 0

0101101
*
Ed
 1e-07 1 1 0
1  44 0 0 0.15
2  65 11 0 0 0.15
0

0101000
+199 0 -144 0 *
Ve
1e-07
5.65 14.150001 0
0 0

0101101
*
Ed
 1e-07 1 1 0
1  45 0 0 1.2
2  66 11 0 0 1.2
2  67 17 0 0 1.2
0

0101000
+144 0 -142 0 *
Ed
 1e-07 1 1 0
1  46 0 0 0.15
2  68 11 0 0 0.15
0

0101000
+142 0 -197 0 *
Wi

0101100
+143 0 +141 0 +140 0 +196 0 *
Fa
0  1e-07 11 0

0101000
+139 0 *
Ve
1e-07
12.4 12.45 0
0 0

0101101
*
Ve
1e-07
9.8 12.45 0
0 0

0101101
*
Ed
 1e-07 1 1 0
1  47 0 0 2.6
2  69 12 0 0 2.6
0

0101000
+137 0 -136 0 *
Ve
1e-07
9.8 10.8 0
0 0

0101101
*
Ed
 1e-07 1 1 0
1  48 0 0 1.65
2  70 12 0 0 1.65
0

0101000
+136 0 -134 0 *
Ed
 1e-07 1 1 0
1  49 0 0 1.299999
2  71 12 0 0 1.299999
0

0101000
+134 0 -184 0 *
Ve
1e-07
12.4 10.8 0
0 0

0101101
*
Ed
 1e-07 1 1 0
1  49 0 2.5 2.6
2  71 12 0 2.5 2.6
0

0101000
+185 0 -131 0 *
Ed
 1e-07 1 1 0
1  50 0 0 1.65
2  72 12 0 0 1.65
0

0101000
+131 0 -137 0 *
Wi

0101100
+135 0 +133 0 +132 0 -183 0 +130 0 +129 0 *
Fa
0  1e-07 12 0

0101000
+128 0 *
Ve
1.00000005218048e-07
31.6 0 0
0 0

0101101
*
Ed
 1e-07 1 1 0
1  51 0 0 15
2  73 13 0 0 15
0

0101000
+172 0 -126 0 *
Ve
1.00000001665335e-07
31.6 1.85 0
0 0

0101101
*
Ed
 1.00000001665335e-07 1 1 0
1  52 0 0 1.85
2  74 13 0 0 1.85
2  75 18 0 0 1.85
0

0101000
+126 0 -124 0 *
Ed
 1e-07 1 1 0
1  53 0 0 15
2  76 13 0 0 15
0

0101000
+124 0 -170 0 *
Wi

0101100
-169 0 +125 0 +123 0 +122 0 *
Fa
0  1e-07 13 0

0101000
+121 0 *
Ve
1.00000000444089e-07
31.6 14.65 0
0 0

0101101
*
Ed
 1e-07 1 1 0
1  54 0 0 15
2  77 14 0 0 15
0

0101000
+119 0 -166 0 *
Ve
1.00000000666134e-07
31.6 1.95 0
0 0

0101101
*
Ed
 1e-07 1 1 0
1  55 0 0 15
2  78 14 0 0 15
0

0101000
+168 0 -117 0 *
Ed
 1.00000000444089e-07 1 1 0
1  56 0 0 12.7
2  79 14 0 0 12.7
2  80 18 0 0 12.7
0

0101000
+117 0 -119 0 *
Wi

0101100
+118 0 +165 0 +116 0 +115 0 *
Fa
0  1e-07 14 0

0101000
+114 0 *
Ve
1e-07
31.6 14.75 0
0 0

0101101
*
Ed
 1e-07 1 1 0
1  57 0 0 15
2  81 15 0 0 15
0

0101000
+164 0 -112 0 *
Ve
1e-07
31.6 16.5 0
0 0

0101101
*
Ed
 1e-07 1 1 0
1  58 0 0 1.75
2  82 15 0 0 1.75
2  83 18 0 0 1.75
0

0101000
+112 0 -110 0 *
Ed
 1e-07 1 1 0
1  59 0 0 15
2  84 15 0 0 15
0

0101000
+110 0 -178 0 *
Wi

0101100
-162 0 +111 0 +109 0 +108 0 *
Fa
0  1e-07 15 0

0101000
+107 0 *
Ve
1.00000000888178e-07
2.6 8.1 0
0 0

0101101
*
Ed
 1e-07 1 1 0
1  60 0 0 0.15
2  85 16 0 0 0.15
0

0101000
+154 0 -105 0 *
Ve
1.00000000888178e-07
3.8 8.1 0
0 0

0101101
*
Ed
 1.00000000888178e-07 1 1 0
1  61 0 0 1.2
2  86 16 0 0 1.2
2  87 19 0 0 1.2
0

0101000
+105 0 -103 0 *
Ed
 1e-07 1 1 0
1  62 0 0 0.15
2  88 16 0 0 0.15
0

0101000
+103 0 -152 0 *
Wi

0101100
+104 0 +102 0 +101 0 +151 0 *
Fa
0  1e-07 16 0

0101000
+100 0 *
Ve
1e-07
9.6 16.5 0
0 0

0101101
*
Ve
1e-07
5.65 16.5 0
0 0

0101101
*
Ed
 1e-07 1 1 0
1  63 0 0 3.95
2  89 17 0 0 3.95
0

0101000
+98 0 -97 0 *
Ed
 1e-07 1 1 0
1  64 0 0 2.349999
2  90 17 0 0 2.349999
0

0101000
+97 0 -142 0 *
Ve
1e-07
5.65 12.55 0
0 0

0101101
*
Ed
 1e-07 1 1 0
1  64 0 3.549999 3.95
2  90 17 0 3.549999 3.95
0

0101000
+144 0 -94 0 *
Ve
1e-07
9.6 12.55 0
0 0

0101101
*
Ed
 1e-07 1 1 0
1  65 0 0 3.95
2  91 17 0 0 3.95
0

0101000
+94 0 -92 0 *
Ed
 1e-07 1 1 0
1  66 0 0 3.95
2  92 17 0 0 3.95
0

0101000
+92 0 -98 0 *
Wi

0101100
+96 0 +95 0 -141 0 +93 0 +91 0 +90 0 *
Fa
0  1e-07 17 0

0101000
+89 0 *
Ve
1e-07
33.5 -0 0
0 0

0101101
*
Ed
 1e-07 1 1 0
1  67 0 0 1.9
2  93 18 0 0 1.9
0

0101000
+126 0 -87 0 *
Ve
1e-07
33.5 4.049999 0
0 0

0101101
*
Ed
 1e-07 1 1 0
1  68 0 0 4.049999
2  94 18 0 0 4.049999
0

0101000
+87 0 -85 0 *
Ve
1e-07
33.5 6.049999 0
0 0

0101101
*
Ed
 1e-07 1 1 0
1  69 0 0 2
2  95 20 0 0 2
2  96 18 0 0 2
0

0101000
+83 0 -85 0 *
Ve
1e-07
33.5 10.450001 0
0 0

0101101
*
Ed
 1e-07 1 1 0
1  68 0 6.049999 10.450001
2  94 18 0 6.049999 10.450001
0

0101000
+83 0 -81 0 *
Ve
1e-07
33.5 11.450001 0
0 0

0101101
*
Ed
 1e-07 1 1 0
1  70 0 0 1
2  97 21 0 0 1
2  98 18 0 0 1
0

0101000
+79 0 -81 0 *
Ve
1e-07
33.5 13.450001 0
0 0

0101101
*
Ed
 1e-07 1 1 0
1  68 0 11.450001 13.450001
2  94 18 0 11.450001 13.450001
0

0101000
+79 0 -77 0 *
Ve
1e-07
33.5 14.450001 0
0 0

0101101
*
Ed
 1e-07 1 1 0
1  71 0 0 1
2  99 22 0 0 1
2  100 18 0 0 1
0

0101000
+75 0 -77 0 *
Ve
1e-07
33.5 16.5 0
0 0

0101101
*
Ed
 1e-07 1 1 0
1  68 0 14.450001 16.5
2  94 18 0 14.450001 16.5
0

0101000
+75 0 -73 0 *
Ed
 1e-07 1 1 0
1  72 0 0 1.9
2  101 18 0 0 1.9
0

0101000
+73 0 -110 0 *
Ed
 1e-07 1 1 0
1  73 0 1.75 1.85
2  102 18 0 1.75 1.85
0

0101000
+112 0 -119 0 *
Ed
 1e-07 1 1 0
1  73 0 14.55 14.65
2  102 18 0 14.55 14.65
0

0101000
+117 0 -124 0 *
Wi

0101100
+86 0 +84 0 -82 0 +80 0 -78 0 +76 0 -74 0 +72 0 +71 0 -109 0 
+70 0 -115 0 +69 0 -123 0 *
Fa
0  1e-07 18 0

0101000
+68 0 *
Ve
1e-07
12.5 8.1 0
0 0

0101101
*
Ed
 1e-07 1 1 0
1  74 0 0 8.7
2  103 19 0 0 8.7
0

0101000
+66 0 -103 0 *
Ve
1e-07
0 8.1 0
0 0

0101101
*
Ed
 1e-07 1 1 0
1  74 0 9.9 12.5
2  103 19 0 9.9 12.5
0

0101000
+105 0 -64 0 *
Ve
1e-07
0 4.2 0
0 0

0101101
*
Ed
 1e-07 1 1 0
1  75 0 0 3.9
2  104 19 0 0 3.9
0

0101000
+64 0 -62 0 *
Ve
1e-07
12.5 4.2 0
0 0

0101101
*
Ed
 1e-07 1 1 0
1  76 0 0 12.5
2  105 19 0 0 12.5
0

0101000
+62 0 -60 0 *
Ed
 1e-07 1 1 0
1  77 0 0 3.9
2  106 19 0 0 3.9
0

0101000
+60 0 -66 0 *
Wi

0101100
+65 0 -102 0 +63 0 +61 0 +59 0 +58 0 *
Fa
0  1e-07 19 0

0101000
+57 0 *
Ve
1e-07
33.650002 4.049999 0
0 0

0101101
*
Ed
 1e-07 1 1 0
1  78 0 0 0.150002000000001
2  107 20 0 0 0.150002000000001
0

0101000
+85 0 -55 0 *
Ve
1e-07
33.650002 6.049999 0
0 0

0101101
*
Ed
 1e-07 1 1 0
1  79 0 0 2
2  108 20 0 0 2
2  109 23 0 0 2
0

0101000
+55 0 -53 0 *
Ed
 1e-07 1 1 0
1  80 0 0 0.150002000000001
2  110 20 0 0 0.150002000000001
0

0101000
+53 0 -83 0 *
Wi

0101100
+54 0 +52 0 +51 0 +82 0 *
Fa
0  1e-07 20 0

0101000
+50 0 *
Ve
1e-07
33.650002 10.450001 0
0 0

0101101
*
Ed
 1e-07 1 1 0
1  81 0 0 0.150002000000001
2  111 21 0 0 0.150002000000001
0

0101000
+81 0 -48 0 *
Ve
1e-07
33.650002 11.450001 0
0 0

0101101
*
Ed
 1e-07 1 1 0
1  82 0 0 1
2  112 21 0 0 1
2  113 24 0 0 1
0

0101000
+48 0 -46 0 *
Ed
 1e-07 1 1 0
1  83 0 0 0.150002000000001
2  114 21 0 0 0.150002000000001
0

0101000
+46 0 -79 0 *
Wi

0101100
+47 0 +45 0 +44 0 +78 0 *
Fa
0  1e-07 21 0

0101000
+43 0 *
Ve
1e-07
33.650002 13.450001 0
0 0

0101101
*
Ed
 1e-07 1 1 0
1  84 0 0 0.150002000000001
2  115 22 0 0 0.150002000000001
0

0101000
+77 0 -41 0 *
Ve
1e-07
33.650002 14.450001 0
0 0

0101101
*
Ed
 1e-07 1 1 0
1  85 0 0 1
2  116 22 0 0 1
2  117 25 0 0 1
0

0101000
+41 0 -39 0 *
Ed
 1e-07 1 1 0
1  86 0 0 0.150002000000001
2  118 22 0 0 0.150002000000001
0

0101000
+39 0 -75 0 *
Wi

0101100
+40 0 +38 0 +37 0 +74 0 *
Fa
0  1e-07 22 0

0101000
+36 0 *
Ve
1e-07
37.549999 8.149998 0
0 0

0101101
*
Ve
1e-07
33.650002 8.149998 0
0 0

0101101
*
Ed
 1e-07 1 1 0
1  87 0 0 3.899997
2  119 23 0 0 3.899997
0

0101000
+34 0 -33 0 *
Ed
 1e-07 1 1 0
1  88 0 0 2.099999
2  120 23 0 0 2.099999
0

0101000
+33 0 -53 0 *
Ve
1e-07
33.650002 -0 0
0 0

0101101
*
Ed
 1e-07 1 1 0
1  88 0 4.099999 8.149998
2  120 23 0 4.099999 8.149998
0

0101000
+55 0 -30 0 *
Ve
1e-07
37.549999 -0 0
0 0

0101101
*
Ed
 1e-07 1 1 0
1  89 0 0 3.899997
2  121 23 0 0 3.899997
0

0101000
+30 0 -28 0 *
Ed
 1e-07 1 1 0
1  90 0 0 8.149998
2  122 23 0 0 8.149998
0

0101000
+28 0 -34 0 *
Wi

0101100
+32 0 +31 0 -52 0 +29 0 +27 0 +26 0 *
Fa
0  1e-07 23 0

0101000
+25 0 *
Ve
1e-07
37.549999 12.35 0
0 0

0101101
*
Ve
1e-07
33.650002 12.35 0
0 0

0101101
*
Ed
 1e-07 1 1 0
1  91 0 0 3.899997
2  123 24 0 0 3.899997
0

0101000
+23 0 -22 0 *
Ed
 1e-07 1 1 0
1  92 0 0 0.899998999999999
2  124 24 0 0 0.899998999999999
0

0101000
+22 0 -46 0 *
Ve
1e-07
33.650002 8.35 0
0 0

0101101
*
Ed
 1e-07 1 1 0
1  92 0 1.899999 4
2  124 24 0 1.899999 4
0

0101000
+48 0 -19 0 *
Ve
1e-07
37.549999 8.35 0
0 0

0101101
*
Ed
 1e-07 1 1 0
1  93 0 0 3.899997
2  125 24 0 0 3.899997
0

0101000
+19 0 -17 0 *
Ed
 1e-07 1 1 0
1  94 0 0 4
2  126 24 0 0 4
0

0101000
+17 0 -23 0 *
Wi

0101100
+21 0 +20 0 -45 0 +18 0 +16 0 +15 0 *
Fa
0  1e-07 24 0

0101000
+14 0 *
Ve
1e-07
37.549999 16.5 0
0 0

0101101
*
Ve
1e-07
33.650002 16.5 0
0 0

0101101
*
Ed
 1e-07 1 1 0
1  95 0 0 3.899997
2  127 25 0 0 3.899997
0

0101000
+12 0 -11 0 *
Ed
 1e-07 1 1 0
1  96 0 0 2.049999
2  128 25 0 0 2.049999
0

0101000
+11 0 -39 0 *
Ve
1e-07
33.650002 12.55 0
0 0

0101101
*
Ed
 1e-07 1 1 0
1  96 0 3.049999 3.95
2  128 25 0 3.049999 3.95
0

0101000
+41 0 -8 0 *
Ve
1e-07
37.549999 12.55 0
0 0

0101101
*
Ed
 1e-07 1 1 0
1  97 0 0 3.899997
2  129 25 0 0 3.899997
0

0101000
+8 0 -6 0 *
Ed
 1e-07 1 1 0
1  98 0 0 3.95
2  130 25 0 0 3.95
0

0101000
+6 0 -12 0 *
Wi

0101100
+10 0 +9 0 -38 0 +7 0 +5 0 +4 0 *
Fa
0  1e-07 25 0

0101000
+3 0 *
Sh

0101000
+268 0 +261 0 +224 0 +221 0 +218 0 +211 0 +204 0 +193 0 +186 0 +179 0 
+160 0 +145 0 +138 0 +127 0 +120 0 +113 0 +106 0 +99 0 +88 0 +67 0 
+56 0 +49 0 +42 0 +35 0 +24 0 +13 0 +2 0 *

+1 0 