# Rhino

g object_1
v 1881.78125 1000 -9204.8720703125
v 1881.78125 0 -9204.8720703125
v 1882.311767578125 1000 -8684.8720703125
v 1882.311767578125 0 -8684.8720703125
v 1612.3118896484375 1000 -8684.5966796875
v 1612.3118896484375 0 -8684.5966796875
v 1611.7813720703125 1000 -9204.5966796875
v 1611.7813720703125 0 -9204.5966796875
f 1 3 4 2
f 3 5 6 4
f 5 7 8 6
f 7 1 2 8
f 7 5 3 1
f 4 6 8 2
g object_2
v -940.80181884765625 1000 -4280.02294921875
v -940.80181884765625 0 -4280.02294921875
v -1077.0439453125 1000 -4513.12841796875
v -1077.0439453125 0 -4513.12841796875
v -628.10040283203125 1000 -4775.5205078125
v -628.10040283203125 0 -4775.5205078125
v -491.8582763671875 1000 -4542.4150390625
v -491.8582763671875 0 -4542.4150390625
f 9 11 12 10
f 11 13 14 12
f 13 15 16 14
f 15 9 10 16
f 11 9 15 13
f 16 10 12 14
g object_3
v 859.329345703125 1000 -1181.1715087890625
v 859.329345703125 0 -1181.1715087890625
v 1309.66259765625 1000 -1441.1715087890625
v 1309.66259765625 0 -1441.1715087890625
v 1444.66259765625 1000 -1207.3446044921875
v 1444.66259765625 0 -1207.3446044921875
v 994.329345703125 1000 -947.3446044921875
v 994.329345703125 0 -947.3446044921875
f 17 19 20 18
f 19 21 22 20
f 21 23 24 22
f 23 17 18 24
f 23 21 19 17
f 20 22 24 18
