# Rhino

g object_1
v 8 5 -9
v 8 7 -9
v 8 5 -8
v 8 7 -8
v 9 5 -8
v 9 7 -8
v 9 5 -9
v 9 7 -9
f 1 3 4 2
f 3 5 6 4
f 5 7 8 6
f 7 1 2 8
f 1 7 5 3
f 6 8 2 4
g object_2
v 2 5 -9
v 2 7 -9
v 2 5 -8
v 2 7 -8
v 3 5 -8
v 3 7 -8
v 3 5 -9
v 3 7 -9
f 9 11 12 10
f 11 13 14 12
f 13 15 16 14
f 15 9 10 16
f 9 15 13 11
f 14 16 10 12
g object_3
v 5 5 -9
v 5 7 -9
v 5 5 -8
v 5 7 -8
v 6 5 -8
v 6 7 -8
v 6 5 -9
v 6 7 -9
f 17 19 20 18
f 19 21 22 20
f 21 23 24 22
f 23 17 18 24
f 17 23 21 19
f 22 24 18 20
g object_4
v 22 5 -9
v 22 7 -9
v 22 5 -8
v 22 7 -8
v 23 5 -8
v 23 7 -8
v 23 5 -9
v 23 7 -9
f 25 27 28 26
f 27 29 30 28
f 29 31 32 30
f 31 25 26 32
f 25 31 29 27
f 30 32 26 28
g object_5
v 16 5 -9
v 16 7 -9
v 16 5 -8
v 16 7 -8
v 17 5 -8
v 17 7 -8
v 17 5 -9
v 17 7 -9
f 33 35 36 34
f 35 37 38 36
f 37 39 40 38
f 39 33 34 40
f 33 39 37 35
f 38 40 34 36
g object_6
v 19 5 -9
v 19 7 -9
v 19 5 -8
v 19 7 -8
v 20 5 -8
v 20 7 -8
v 20 5 -9
v 20 7 -9
f 41 43 44 42
f 43 45 46 44
f 45 47 48 46
f 47 41 42 48
f 41 47 45 43
f 46 48 42 44
g object_7
v 8 5 -1
v 8 7 -1
v 9 5 -1
v 9 7 -1
v 9 5 -2
v 9 7 -2
v 8 5 -2
v 8 7 -2
f 49 51 52 50
f 51 53 54 52
f 53 55 56 54
f 55 49 50 56
f 51 49 55 53
f 56 50 52 54
g object_8
v 2 5 -1
v 2 7 -1
v 3 5 -1
v 3 7 -1
v 3 5 -2
v 3 7 -2
v 2 5 -2
v 2 7 -2
f 57 59 60 58
f 59 61 62 60
f 61 63 64 62
f 63 57 58 64
f 59 57 63 61
f 64 58 60 62
g object_9
v 5 5 -1
v 5 7 -1
v 6 5 -1
v 6 7 -1
v 6 5 -2
v 6 7 -2
v 5 5 -2
v 5 7 -2
f 65 67 68 66
f 67 69 70 68
f 69 71 72 70
f 71 65 66 72
f 67 65 71 69
f 72 66 68 70
g object_10
v 22 5 -1
v 22 7 -1
v 23 5 -1
v 23 7 -1
v 23 5 -2
v 23 7 -2
v 22 5 -2
v 22 7 -2
f 73 75 76 74
f 75 77 78 76
f 77 79 80 78
f 79 73 74 80
f 75 73 79 77
f 80 74 76 78
g object_11
v 16 5 -1
v 16 7 -1
v 17 5 -1
v 17 7 -1
v 17 5 -2
v 17 7 -2
v 16 5 -2
v 16 7 -2
f 81 83 84 82
f 83 85 86 84
f 85 87 88 86
f 87 81 82 88
f 83 81 87 85
f 88 82 84 86
g object_12
v 19 5 -1
v 19 7 -1
v 20 5 -1
v 20 7 -1
v 20 5 -2
v 20 7 -2
v 19 5 -2
v 19 7 -2
f 89 91 92 90
f 91 93 94 92
f 93 95 96 94
f 95 89 90 96
f 91 89 95 93
f 96 90 92 94
