# Rhino

g object_1
v 6 7 -9
v 6 17 -9
v 4 7 -9
v 4 17 -9
v 4 12 -9
v 6 12 -9
v 4 7 -4
v 4 17 -4
v 4 7 -6.5
v 4 12 -4
v 4 17 -6.5
v 10 7 -4
v 10 17 -4
v 7 7 -4
v 10 12 -4
v 7 17 -4
v 10 7 -6
v 10 17 -6
v 10 12 -6
v 6 7 -6
v 6 17 -6
v 6 12 -6
f 6 1 3 5 4 2
f 5 3 9 7 10 8 11 4
f 10 7 14 12 15 13 16 8
f 15 12 17 19 18 13
f 19 17 20 22 21 18
f 22 20 1 6 2 21
f 7 9 3 1 20 17 12 14
f 11 8 16 13 18 21 2 4
g object_2
v 21 7 -9
v 21 17 -9
v 19 7 -9
v 19 17 -9
v 19 12 -9
v 21 12 -9
v 19 7 -6
v 19 17 -6
v 19 12 -6
v 15 7 -6
v 15 17 -6
v 15 12 -6
v 15 7 -4
v 15 17 -4
v 15 12 -4
v 21 7 -4
v 21 17 -4
v 18 7 -4
v 21 12 -4
v 18 17 -4
v 21 7 -6.5
v 21 17 -6.5
f 28 23 25 27 26 24
f 27 25 29 31 30 26
f 31 29 32 34 33 30
f 34 32 35 37 36 33
f 37 35 40 38 41 39 42 36
f 41 38 43 23 28 24 44 39
f 35 32 29 25 23 43 38 40
f 36 42 39 44 24 26 30 33
g object_3
v 10 5 -1
v 10 17 -1
v 15 5 -1
v 15 17 -1
v 15 5 -9
v 15 17 -9
v 10 5 -9
v 10 17 -9
f 45 47 48 46
f 47 49 50 48
f 49 51 52 50
f 51 45 46 52
f 47 45 51 49
f 52 46 48 50
