# Rhino

g object_1
v 0 0 0
v 0 5 0
v 5 0 0
v 5 5 0
v 5 0 -5
v 5 5 -5
v 0 0 -5
v 0 5 -5
f 1 3 4 2
f 3 5 6 4
f 5 7 8 6
f 7 1 2 8
f 7 5 3 1
f 4 6 8 2
g object_2
v 5 0 0
v 5 5 0
v 10 0 0
v 10 5 0
v 10 0 -5
v 10 5 -5
v 5 0 -5
v 5 5 -5
f 9 11 12 10
f 11 13 14 12
f 13 15 16 14
f 15 9 10 16
f 15 13 11 9
f 12 14 16 10
g object_3
v 5 0 -5
v 5 5 -5
v 10 0 -5
v 10 5 -5
v 10 0 -10
v 10 5 -10
v 5 0 -10
v 5 5 -10
f 17 19 20 18
f 19 21 22 20
f 21 23 24 22
f 23 17 18 24
f 23 21 19 17
f 20 22 24 18
g object_4
v 0 0 -5
v 0 5 -5
v 5 0 -5
v 5 5 -5
v 5 0 -10
v 5 5 -10
v 0 0 -10
v 0 5 -10
f 25 27 28 26
f 27 29 30 28
f 29 31 32 30
f 31 25 26 32
f 31 29 27 25
f 28 30 32 26
g object_5
v 10 0 -5
v 10 5 -5
v 15 0 -5
v 15 5 -5
v 15 0 -10
v 15 5 -10
v 10 0 -10
v 10 5 -10
f 33 35 36 34
f 35 37 38 36
f 37 39 40 38
f 39 33 34 40
f 39 37 35 33
f 36 38 40 34
g object_6
v 15 0 -5
v 15 5 -5
v 20 0 -5
v 20 5 -5
v 20 0 -10
v 20 5 -10
v 15 0 -10
v 15 5 -10
f 41 43 44 42
f 43 45 46 44
f 45 47 48 46
f 47 41 42 48
f 47 45 43 41
f 44 46 48 42
g object_7
v 20 0 -5
v 20 5 -5
v 25 0 -5
v 25 5 -5
v 25 0 -10
v 25 5 -10
v 20 0 -10
v 20 5 -10
f 49 51 52 50
f 51 53 54 52
f 53 55 56 54
f 55 49 50 56
f 55 53 51 49
f 52 54 56 50
g object_8
v 20 0 0
v 20 5 0
v 25 0 0
v 25 5 0
v 25 0 -5
v 25 5 -5
v 20 0 -5
v 20 5 -5
f 57 59 60 58
f 59 61 62 60
f 61 63 64 62
f 63 57 58 64
f 63 61 59 57
f 60 62 64 58
g object_9
v 15 0 0
v 15 5 0
v 20 0 0
v 20 5 0
v 20 0 -5
v 20 5 -5
v 15 0 -5
v 15 5 -5
f 65 67 68 66
f 67 69 70 68
f 69 71 72 70
f 71 65 66 72
f 71 69 67 65
f 68 70 72 66
g object_10
v 10 0 0
v 10 5 0
v 15 0 0
v 15 5 0
v 15 0 -5
v 15 5 -5
v 10 0 -5
v 10 5 -5
f 73 75 76 74
f 75 77 78 76
f 77 79 80 78
f 79 73 74 80
f 79 77 75 73
f 76 78 80 74
g object_11
v 6 0 -9
v 4 0 -9
v 4 0 -4
v 10 0 -4
v 10 0 -6
v 6 0 -6
cstype bspline
deg 1
curv 0 40 81 82 83 84 85 86 81
parm u 0 0 2 16 22 24 28 40 40
end
g object_12
v 21 0 -9
v 19 0 -9
v 19 0 -6
v 15 0 -6
v 15 0 -4
v 21 0 -4
cstype bspline
deg 1
curv 0 40 87 88 89 90 91 92 87
parm u 0 0 2 14 18 20 26 40 40
end
g object_13
v 0 0 0
v 0 0 -5
v 5 0 -5
v 5 0 0
cstype bspline
deg 1
curv 0 20 93 94 95 96 93
parm u 0 0 5 10 15 20 20
end
g object_14
v 0 0 -5
v 0 0 -10
v 5 0 -10
v 5 0 -5
cstype bspline
deg 1
curv 0 20 97 98 99 100 97
parm u 0 0 5 10 15 20 20
end
